<?xml version="1.0" encoding="UTF-8"?>
<svg width="1200pt" height="1200pt" version="1.1" viewBox="0 0 1200 1200" xmlns="http://www.w3.org/2000/svg">
 <path d="m1176 92.398c0-4.8008-2.3984-9.6016-6-13.199l-2.3984-2.3984c-3.6016-4.8008-8.4023-6-13.203-7.1992-18-1.1992-439.2-36-691.2 219.6-142.8 144-201.6 349.2-175.2 612 0 2.3984 1.1992 6 2.3984 8.3984l-154.8 153.6c-9.6016 9.6016-9.6016 24 0 33.602 4.8008 4.8008 10.801 7.1992 16.801 7.1992s12-2.3984 16.801-7.1992l153.6-153.6c2.3984 1.1992 4.8008 2.3984 7.1992 2.3984 48 6 94.801 8.3984 139.2 8.3984 198 0 358.8-57.602 477.6-171.6 260.39-248.39 231.59-672 229.2-690zm-261.6 656.4c-129.6 123.6-314.4 175.2-548.4 152.4l272.4-272.4 255.6-51.602c13.199-2.3984 21.602-15.602 19.199-28.801-2.3984-13.199-15.602-21.602-28.801-19.199l-186 37.199 192-192c9.6016-9.6016 9.6016-24 0-33.602-9.6016-9.6016-24-9.6016-33.602 0l-247.2 248.4-72 72v-168c0-13.199-10.801-24-24-24-13.199 0-24 10.801-24 24v202.8c0 3.6016 1.1992 7.1992 2.3984 10.801l-159.6 159.6c-16.801-232.8 38.398-416.4 164.4-543.6 206.4-207.6 546-210 632.4-206.4 2.4023 86.402-2.3984 428.4-214.8 632.4z"/>
</svg>
