<?xml version="1.0" standalone="no"?>
<!DOCTYPE svg PUBLIC "-//W3C//DTD SVG 20010904//EN"
 "http://www.w3.org/TR/2001/REC-SVG-20010904/DTD/svg10.dtd">
<svg version="1.0" xmlns="http://www.w3.org/2000/svg"
 width="188.000000pt" height="50.000000pt" viewBox="0 0 188.000000 50.000000"
 preserveAspectRatio="xMidYMid meet">

<g transform="translate(0.000000,50.000000) scale(0.100000,-0.100000)"
fill="#000000" stroke="none">
<path d="M840 250 c0 -160 4 -250 10 -250 6 0 10 90 10 250 0 160 -4 250 -10
250 -6 0 -10 -90 -10 -250z"/>
<path d="M359 443 l6 -38 3 32 c2 23 9 33 25 36 16 3 14 5 -8 6 -30 1 -31 0
-26 -36z"/>
<path d="M755 449 c-30 -7 -30 -7 -3 -8 14 0 28 -6 30 -13 3 -8 7 -6 11 5 8
21 -1 25 -38 16z"/>
<path d="M960 443 c-1 -5 -10 -19 -20 -32 l-20 -23 -20 23 c-19 23 -19 23 -20
3 0 -11 9 -29 20 -39 19 -17 21 -17 40 0 20 18 20 17 20 -23 0 -22 5 -44 10
-47 6 -4 10 22 10 69 0 44 -4 76 -10 76 -5 0 -10 -3 -10 -7z"/>
<path d="M1042 427 c-29 -31 -28 -72 3 -102 30 -30 54 -31 89 -4 19 15 26 30
26 55 0 67 -73 99 -118 51z m83 -17 c28 -31 10 -74 -33 -78 -26 -3 -34 1 -43
22 -10 20 -9 30 5 51 20 30 46 32 71 5z"/>
<path d="M1204 437 c-3 -8 -4 -41 -2 -73 3 -59 3 -59 36 -62 19 -2 41 -1 50 3
14 5 14 7 2 15 -8 6 -25 10 -37 10 -21 0 -23 5 -23 54 0 53 -14 82 -26 53z"/>
<path d="M1324 436 c-3 -7 -4 -40 -2 -72 3 -59 3 -59 36 -62 19 -2 41 -1 50 3
14 5 14 7 2 15 -8 6 -25 10 -37 10 -32 0 -29 28 2 32 14 2 26 8 26 13 0 6 -12
11 -26 13 -29 4 -34 32 -6 32 28 0 52 11 45 21 -9 15 -84 11 -90 -5z"/>
<path d="M1450 370 c0 -78 17 -96 22 -22 l3 47 34 -47 c19 -27 38 -48 43 -48
4 0 8 32 8 70 0 40 -4 70 -10 70 -5 0 -10 -18 -10 -40 0 -22 -3 -40 -7 -40 -5
1 -20 19 -35 40 -15 22 -32 40 -38 40 -6 0 -10 -30 -10 -70z"/>
<path d="M479 402 c-3 -20 -2 -29 4 -23 5 5 7 19 5 32 -3 20 -5 19 -9 -9z"/>
<path d="M791 384 c0 -11 3 -14 6 -6 3 7 2 16 -1 19 -3 4 -6 -2 -5 -13z"/>
<path d="M488 348 c-37 -21 -51 -48 -25 -48 7 0 18 -9 25 -20 14 -23 58 -43
73 -35 5 4 -3 17 -18 31 -31 29 -43 32 -18 4 15 -17 16 -20 3 -20 -20 0 -42
26 -33 40 3 5 1 10 -4 10 -22 0 -10 21 22 40 44 27 21 25 -25 -2z"/>
<path d="M665 350 c10 -11 20 -20 23 -20 3 0 -3 9 -13 20 -10 11 -20 20 -23
20 -3 0 3 -9 13 -20z"/>
<path d="M610 339 c0 -11 5 -17 10 -14 6 3 10 13 10 21 0 8 -4 14 -10 14 -5 0
-10 -9 -10 -21z"/>
<path d="M766 345 c-11 -8 -15 -15 -9 -15 6 0 16 7 23 15 16 19 11 19 -14 0z"/>
<path d="M708 323 c6 -2 18 -2 25 0 6 3 1 5 -13 5 -14 0 -19 -2 -12 -5z"/>
<path d="M596 282 l-19 -27 24 22 c12 12 21 24 18 27 -2 2 -13 -8 -23 -22z"/>
<path d="M1280 150 c0 -82 3 -100 15 -100 8 0 15 9 15 20 0 28 40 46 69 31 11
-7 21 -21 21 -31 0 -11 7 -20 15 -20 19 0 19 20 -1 48 -14 20 -14 24 0 44 20
28 20 48 1 48 -8 0 -15 -9 -15 -20 0 -21 -18 -33 -62 -44 l-28 -6 0 65 c0 51
-3 65 -15 65 -12 0 -15 -18 -15 -100z"/>
<path d="M530 195 c-29 -31 -54 -32 -74 -3 -9 12 -16 19 -16 14 0 -11 33 -66
40 -66 3 0 24 18 45 40 21 22 37 40 34 40 -3 0 -16 -11 -29 -25z"/>
<path d="M890 190 c0 -5 14 -10 30 -10 17 0 30 5 30 10 0 6 -13 10 -30 10 -16
0 -30 -4 -30 -10z"/>
<path d="M1012 173 c-67 -57 1 -154 79 -112 11 5 17 14 14 20 -4 6 -13 5 -25
-1 -10 -5 -27 -10 -36 -10 -13 0 -6 12 26 46 43 44 44 46 26 60 -27 19 -59 18
-84 -3z m58 -11 c0 -14 -56 -63 -63 -55 -11 11 -8 22 13 43 20 20 50 27 50 12z"/>
<path d="M1155 165 c-30 -30 -31 -54 -4 -89 24 -30 78 -36 99 -11 18 22 7 28
-24 14 -42 -20 -43 -2 0 42 38 39 38 41 20 55 -29 21 -64 17 -91 -11z m65 -3
c0 -14 -56 -63 -63 -55 -11 11 -8 22 13 43 20 20 50 27 50 12z"/>
<path d="M900 131 c0 -5 9 -11 21 -14 28 -7 21 -41 -9 -45 -35 -5 -26 -24 11
-20 30 3 32 6 35 46 3 41 2 42 -27 42 -17 0 -31 -4 -31 -9z"/>
</g>
</svg>
