
<svg version="1.0" xmlns="http://www.w3.org/2000/svg"
 width="1266.000000pt" height="270.000000pt" viewBox="0 0 1266.000000 270.000000"
 preserveAspectRatio="xMidYMid meet">

<g transform="translate(0.000000,270.000000) scale(0.100000,-0.100000)"
fill="#000000" stroke="none">
<path d="M1172 2689 c-568 -77 -1023 -500 -1144 -1062 -29 -136 -32 -400 -5
-527 86 -411 339 -752 696 -938 120 -63 180 -86 306 -118 136 -35 403 -45 549
-20 566 97 1007 538 1101 1104 26 157 17 410 -20 552 -66 253 -195 473 -380
648 -188 178 -410 293 -670 347 -97 20 -333 28 -433 14z m-256 -718 c38 -18
77 -39 86 -48 17 -15 18 -13 18 30 l0 47 80 0 80 0 0 -195 0 -195 -80 0 -80 0
0 48 c0 41 -5 55 -35 90 -20 22 -61 53 -93 69 -50 24 -69 28 -147 28 -114 0
-166 -24 -196 -88 -31 -69 -22 -127 28 -179 32 -33 87 -55 262 -102 156 -43
253 -89 305 -146 21 -23 41 -39 44 -35 4 3 106 162 228 353 l220 347 72 3 72
3 0 -396 0 -395 55 0 55 0 0 -75 0 -75 -55 0 -55 0 0 -95 0 -95 130 0 130 0 0
485 0 485 -80 0 -80 0 0 80 0 80 235 0 235 0 0 -80 0 -80 -80 0 -80 0 0 -485
0 -485 80 0 80 0 0 -80 0 -80 -435 0 -435 0 0 80 0 80 80 0 80 0 0 95 0 95
-199 0 -199 0 -7 -55 c-9 -72 -56 -164 -107 -210 -141 -128 -394 -131 -555 -8
l-43 33 0 -50 0 -50 -80 0 -80 0 0 230 0 230 80 0 80 0 0 -64 c0 -58 3 -69 36
-113 75 -101 151 -143 259 -143 144 1 222 72 224 205 1 34 -6 61 -20 85 -39
64 -79 84 -267 139 -227 65 -316 120 -369 229 -24 49 -28 69 -28 142 1 145 58
251 166 306 72 36 113 44 220 40 84 -2 105 -7 165 -35z"/>
<path d="M1461 1485 c-94 -145 -171 -267 -171 -270 0 -3 79 -5 175 -5 l175 0
0 270 c0 149 -2 270 -4 270 -2 0 -80 -119 -175 -265z"/>
<path d="M3318 1917 c-140 -40 -222 -172 -204 -327 18 -149 107 -223 352 -291
126 -35 172 -57 207 -99 48 -56 44 -146 -8 -209 -27 -32 -99 -61 -151 -61 -60
0 -139 37 -187 89 -57 61 -77 100 -77 151 l0 40 -65 0 -65 0 0 -200 0 -200 65
0 65 0 0 40 c0 22 2 40 5 40 3 0 29 -15 58 -34 75 -50 154 -70 248 -63 130 9
220 61 274 159 28 50 30 59 30 168 0 133 -13 169 -86 234 -55 50 -117 78 -271
119 -70 19 -145 44 -165 54 -47 24 -83 76 -83 117 0 153 235 197 371 69 44
-41 49 -50 49 -89 l0 -44 70 0 70 0 0 170 0 170 -70 0 -70 0 0 -34 0 -34 -69
35 c-60 31 -79 36 -157 39 -55 2 -107 -1 -136 -9z"/>
<path d="M7626 1578 l-229 -341 17 -26 c10 -14 25 -43 34 -63 l17 -37 185 -3
185 -3 0 -80 0 -80 -57 -3 -58 -3 0 -64 0 -65 185 0 185 0 0 65 0 65 -50 0
-50 0 0 85 0 85 85 0 85 0 0 65 0 65 -85 0 -85 0 0 340 0 340 -68 0 -68 0
-228 -342z m214 -128 l0 -210 -145 0 -146 0 141 210 c78 116 143 210 146 210
2 0 4 -94 4 -210z"/>
<path d="M8190 1840 l0 -70 60 0 60 0 0 -410 0 -410 -60 0 -60 0 0 -70 0 -70
200 0 200 0 0 70 0 70 -60 0 -60 0 0 410 0 410 60 0 60 0 0 70 0 70 -200 0
-200 0 0 -70z"/>
<path d="M7082 1761 l-72 -66 0 -57 0 -58 -50 0 -50 0 0 -70 0 -70 49 0 50 0
3 -267 c4 -310 6 -320 86 -355 37 -17 58 -20 114 -15 37 3 73 9 78 12 6 3 10
37 10 75 l0 68 -37 -9 c-54 -12 -80 -2 -92 33 -7 18 -11 119 -11 244 l0 214
70 0 70 0 0 70 0 70 -70 0 -69 0 -3 124 -3 124 -73 -67z"/>
<path d="M12392 1761 l-72 -66 0 -57 0 -58 -50 0 -50 0 0 -70 0 -70 49 0 50 0
3 -267 c4 -310 6 -320 86 -355 37 -17 58 -20 114 -15 37 3 73 9 78 12 6 3 10
37 10 75 l0 68 -37 -9 c-54 -12 -80 -2 -92 33 -7 18 -11 119 -11 244 l0 214
70 0 70 0 0 70 0 70 -70 0 -69 0 -3 124 -3 124 -73 -67z"/>
<path d="M5601 1585 c-30 -9 -69 -24 -86 -35 -43 -26 -117 -108 -112 -123 2
-6 34 -19 71 -28 l67 -17 15 24 c37 56 162 82 239 50 53 -22 75 -67 75 -153
l0 -72 -57 27 c-50 23 -71 27 -148 27 -98 0 -149 -18 -208 -74 -94 -87 -94
-241 -1 -335 55 -54 101 -71 194 -71 90 0 131 15 208 73 l32 24 0 -46 0 -46
130 0 130 0 0 65 0 64 -62 3 -63 3 -5 240 c-4 158 -10 250 -18 269 -23 54 -54
87 -105 113 -43 22 -68 27 -147 30 -64 2 -113 -2 -149 -12z m168 -430 c23 -8
56 -24 72 -35 25 -19 29 -28 29 -69 0 -44 -3 -50 -37 -74 -65 -45 -112 -59
-176 -55 -48 4 -63 9 -88 35 -58 57 -46 150 24 193 39 24 117 26 176 5z"/>
<path d="M10846 1589 c-63 -15 -155 -69 -197 -117 -68 -78 -92 -142 -97 -257
-5 -114 12 -179 68 -260 136 -198 485 -222 673 -46 79 73 79 77 1 112 l-67 30
-29 -35 c-35 -43 -118 -85 -185 -93 -138 -16 -265 72 -288 200 l-7 37 321 0
321 0 0 24 c0 135 -89 300 -197 362 -83 49 -215 67 -317 43z m202 -134 c63
-27 126 -97 146 -162 l7 -23 -241 0 -241 0 7 23 c23 74 74 135 139 163 41 18
138 17 183 -1z"/>
<path d="M4410 1575 c-25 -8 -71 -30 -104 -50 -32 -19 -60 -35 -62 -35 -2 0
-4 20 -4 45 l0 45 -140 0 -140 0 0 -70 0 -70 65 0 65 0 0 -250 0 -250 -70 0
-70 0 0 -65 0 -65 215 0 215 0 0 65 0 64 -67 3 -68 3 -3 202 -2 202 33 25 c89
68 207 97 247 61 34 -31 40 -83 40 -357 l0 -268 140 0 140 0 0 65 0 64 -62 3
-63 3 0 209 0 208 64 39 c95 57 177 67 219 25 22 -21 31 -139 32 -388 l0 -228
140 0 140 0 0 65 0 65 -64 0 -64 0 -4 253 c-3 167 -9 262 -17 282 -55 133
-233 153 -400 45 l-63 -41 -36 42 c-20 23 -51 48 -69 55 -41 18 -124 17 -183
-1z"/>
<path d="M6677 1579 c-73 -17 -135 -66 -170 -134 -16 -30 -16 -29 -17 53 l0
82 -140 0 -140 0 0 -70 0 -70 80 0 80 0 -2 -247 -3 -248 -77 -3 -78 -3 0 -64
0 -65 240 0 240 0 0 65 0 65 -85 0 -85 0 0 143 c0 279 37 332 243 353 l67 7 0
73 0 74 -57 -1 c-32 -1 -75 -5 -96 -10z"/>
<path d="M9120 1571 c-30 -10 -77 -32 -105 -49 l-50 -31 -3 44 -3 45 -140 0
-139 0 0 -70 0 -70 65 0 65 0 0 -250 0 -250 -65 0 -65 0 0 -65 0 -65 205 0
205 0 0 65 0 64 -62 3 -63 3 -3 202 -2 202 33 25 c102 78 220 98 261 43 20
-27 21 -42 24 -318 l3 -289 139 0 140 0 0 65 0 64 -62 3 -63 3 -5 250 c-5 244
-6 252 -30 300 -47 89 -151 118 -280 76z"/>
<path d="M11670 1581 c-120 -39 -180 -112 -180 -216 0 -66 16 -109 56 -148 43
-43 74 -56 215 -88 151 -34 186 -49 195 -86 23 -91 -137 -148 -254 -92 -44 22
-82 68 -82 102 0 14 -10 17 -65 17 l-65 0 0 -130 0 -130 65 0 c58 0 65 2 65
19 0 20 1 20 46 0 25 -12 78 -23 117 -26 197 -15 331 79 331 232 -1 144 -80
201 -341 245 -116 19 -166 68 -133 129 24 47 132 69 201 42 49 -18 99 -70 99
-102 l0 -29 70 0 70 0 0 130 0 130 -70 0 c-54 0 -70 -3 -70 -14 0 -13 -5 -13
-37 1 -43 18 -195 27 -233 14z"/>
<path d="M9570 1510 l0 -69 71 -3 72 -3 122 -315 122 -315 72 0 72 0 121 318
121 317 58 0 59 0 0 70 0 70 -185 0 -185 0 0 -70 0 -70 50 0 c28 0 50 -3 50
-7 0 -15 -155 -412 -159 -407 -2 2 -39 95 -82 207 l-77 202 49 3 49 3 0 70 0
69 -200 0 -200 0 0 -70z"/>
</g>
</svg>
